<?xml version="1.0" encoding="utf-8"?>
<!-- Generator: Adobe Illustrator 25.2.1, SVG Export Plug-In . SVG Version: 6.00 Build 0)  -->
<svg version="1.1" id="Layer_1" xmlns="http://www.w3.org/2000/svg" xmlns:xlink="http://www.w3.org/1999/xlink" x="0px" y="0px"
	 viewBox="0 0 612 792" style="enable-background:new 0 0 612 792;" xml:space="preserve">
<style type="text/css">
	.st0{fill:none;stroke:#EBDFD3;stroke-width:11;stroke-miterlimit:10;}
	.st1{fill:#CB9866;}
	.st2{fill:#EBDFD3;}
</style>
<path class="st0" d="M222.26,182.49c0,0-80.22,40.66-71.43,121.98c8.79,81.32,170.33,148.35,170.33,148.35s190.11,104.4,78.02,202.2
	s-24.18-310.99-24.18-310.99"/>
<g>
	<g>
		<path class="st1" d="M380.51,322.36c3.22,0,3.22-5,0-5C377.29,317.36,377.28,322.36,380.51,322.36L380.51,322.36z"/>
	</g>
</g>
<g>
	<g>
		<path class="st2" d="M381.6,329.86c5.23,0,10.24-4.6,10-10c-0.24-5.42-4.39-10-10-10c-5.23,0-10.24,4.6-10,10
			C371.85,325.28,376,329.86,381.6,329.86L381.6,329.86z"/>
	</g>
</g>
</svg>
